<svg xmlns="http://www.w3.org/2000/svg" width="40.5" height="27" viewBox="0 0 40.5 27">
  <defs>
    <style>
      .cls-1 {
        fill: #fff;
      }
    </style>
  </defs>
  <path id="Icon_awesome-newspaper" data-name="Icon awesome-newspaper" class="cls-1" d="M38.813,4.5H6.188A1.687,1.687,0,0,0,4.5,6.188V6.75H1.688A1.687,1.687,0,0,0,0,8.438V27.563A3.937,3.937,0,0,0,3.938,31.5H37.125A3.375,3.375,0,0,0,40.5,28.125V6.188A1.687,1.687,0,0,0,38.813,4.5ZM3.938,28.125a.563.563,0,0,1-.562-.562V10.125H4.5V27.563a.563.563,0,0,1-.562.562ZM20.531,27H9.844A.844.844,0,0,1,9,26.156v-.562a.844.844,0,0,1,.844-.844H20.531a.844.844,0,0,1,.844.844v.563a.844.844,0,0,1-.844.843Zm14.625,0H24.469a.844.844,0,0,1-.844-.844v-.562a.844.844,0,0,1,.844-.844H35.156a.844.844,0,0,1,.844.844v.563a.844.844,0,0,1-.844.843ZM20.531,20.25H9.844A.844.844,0,0,1,9,19.406v-.562A.844.844,0,0,1,9.844,18H20.531a.844.844,0,0,1,.844.844v.563a.844.844,0,0,1-.844.843Zm14.625,0H24.469a.844.844,0,0,1-.844-.844v-.562A.844.844,0,0,1,24.469,18H35.156a.844.844,0,0,1,.844.844v.563a.844.844,0,0,1-.844.843Zm0-6.75H9.844A.844.844,0,0,1,9,12.656V9.844A.844.844,0,0,1,9.844,9H35.156A.844.844,0,0,1,36,9.844v2.813a.844.844,0,0,1-.844.843Z" transform="translate(0 -4.5)"/>
</svg>
