<svg xmlns="http://www.w3.org/2000/svg" width="36" height="31.493" viewBox="0 0 36 31.493">
  <defs>
    <style>
      .cls-1 {
        fill: #fff;
      }
    </style>
  </defs>
  <path id="Icon_awesome-random" data-name="Icon awesome-random" class="cls-1" d="M35.506,25.244a1.687,1.687,0,0,1,0,2.386l-5.625,5.624A1.689,1.689,0,0,1,27,32.061V29.25H22.867a.844.844,0,0,1-.617-.268l-4.961-5.315,3.75-4.018,3.711,3.976H27V20.814a1.689,1.689,0,0,1,2.881-1.193l5.625,5.624ZM.844,12.375H6.75l3.711,3.976,3.75-4.018L9.25,7.018a.844.844,0,0,0-.617-.268H.844A.844.844,0,0,0,0,7.594v3.938a.844.844,0,0,0,.844.843Zm26.156,0v2.811a1.689,1.689,0,0,0,2.881,1.193l5.625-5.624a1.687,1.687,0,0,0,0-2.386L29.881,2.746A1.689,1.689,0,0,0,27,3.939V6.75H22.867a.844.844,0,0,0-.617.268L6.75,23.625H.844A.844.844,0,0,0,0,24.469v3.938a.844.844,0,0,0,.844.844h7.79a.844.844,0,0,0,.617-.268l15.5-16.607Z" transform="translate(0 -2.254)"/>
</svg>
