<svg xmlns="http://www.w3.org/2000/svg" width="35.982" height="35.992" viewBox="0 0 35.982 35.992">
  <defs>
    <style>
      .cls-1 {
        fill: #fff;
      }
    </style>
  </defs>
  <path id="Icon_awesome-search" data-name="Icon awesome-search" class="cls-1" d="M35.508,31.127l-7.01-7.01a1.686,1.686,0,0,0-1.2-.492H26.156a14.618,14.618,0,1,0-2.531,2.531V27.3a1.686,1.686,0,0,0,.492,1.2l7.01,7.01a1.681,1.681,0,0,0,2.384,0l1.99-1.99a1.7,1.7,0,0,0,.007-2.391Zm-20.883-7.5a9,9,0,1,1,9-9,9,9,0,0,1-9,9Z" transform="translate(-0.014 -0.014)"/>
</svg>
